<svg xmlns="http://www.w3.org/2000/svg" version="1.1" width="1024" height="380">
<rect x="0" y="0" width="1024" height="380" fill="#b6a097" />
<g transform="scale(4.000000) translate(0.5 0.5)">
<polygon fill="#260000" fill-opacity="0.501961" points="32,-16 -16,82 119,27" />
<polygon fill="#bbfef2" fill-opacity="0.501961" points="257,-16 252,110 69,32" />
<polygon fill="#ff967c" fill-opacity="0.501961" points="-16,86 108,49 247,110" />
<polygon fill="#000000" fill-opacity="0.501961" points="83,-12 14,-3 89,33" />
<polygon fill="#790010" fill-opacity="0.501961" points="2,61 -15,-16 59,63" />
<polygon fill="#ff9885" fill-opacity="0.501961" points="192,84 2,59 -5,110" />
<polygon fill="#ffffff" fill-opacity="0.501961" points="33,16 -12,-3 8,-16" />
<polygon fill="#000000" fill-opacity="0.501961" points="84,43 47,49 69,55" />
<polygon fill="#fffeff" fill-opacity="0.501961" points="227,87 148,78 98,36" />
<polygon fill="#a8f6e9" fill-opacity="0.501961" points="73,-16 107,23 192,0" />
<polygon fill="#ffffff" fill-opacity="0.501961" points="74,43 58,47 50,32" />
<polygon fill="#000005" fill-opacity="0.501961" points="108,28 55,15 63,-16" />
<polygon fill="#e9ffff" fill-opacity="0.501961" points="27,23 28,35 42,31" />
<polygon fill="#ff9b8a" fill-opacity="0.501961" points="-16,94 212,93 91,43" />
<polygon fill="#ffebd1" fill-opacity="0.501961" points="54,16 51,22 47,2" />
<polygon fill="#ae6a63" fill-opacity="0.501961" points="27,48 85,17 84,37" />
<polygon fill="#000000" fill-opacity="0.501961" points="74,-16 39,42 88,-1" />
<polygon fill="#000003" fill-opacity="0.501961" points="70,53 87,39 83,26" />
<polygon fill="#ffffff" fill-opacity="0.501961" points="222,107 163,63 259,101" />
<polygon fill="#8d1d28" fill-opacity="0.501961" points="0,3 31,17 -16,97" />
<polygon fill="#d5ffff" fill-opacity="0.501961" points="39,44 30,48 26,42" />
<polygon fill="#ffffff" fill-opacity="0.501961" points="108,37 86,43 147,62" />
<polygon fill="#a6c7b9" fill-opacity="0.501961" points="271,110 88,12 268,15" />
<polygon fill="#ff9b88" fill-opacity="0.501961" points="79,89 -16,83 14,60" />
<polygon fill="#000000" fill-opacity="0.501961" points="36,43 52,32 24,36" />
<polygon fill="#4f0000" fill-opacity="0.501961" points="51,44 28,66 54,60" />
<polygon fill="#d2cae2" fill-opacity="0.501961" points="21,29 45,29 33,36" />
<polygon fill="#3c0000" fill-opacity="0.501961" points="48,28 47,-16 15,-7" />
<polygon fill="#eafbff" fill-opacity="0.501961" points="79,56 59,59 95,41" />
<polygon fill="#fdffff" fill-opacity="0.501961" points="18,-4 32,14 -2,1" />
<polygon fill="#000013" fill-opacity="0.501961" points="108,27 102,21 103,34" />
<polygon fill="#fa9886" fill-opacity="0.501961" points="-16,98 94,48 234,102" />
<polygon fill="#e45d3b" fill-opacity="0.501961" points="73,38 55,27 80,20" />
<polygon fill="#000003" fill-opacity="0.501961" points="83,45 66,55 54,51" />
<polygon fill="#e9ffff" fill-opacity="0.501961" points="74,41 61,39 63,45" />
<polygon fill="#ffffff" fill-opacity="0.501961" points="96,14 104,12 110,23" />
<polygon fill="#11252f" fill-opacity="0.501961" points="77,11 92,8 82,43" />
<polygon fill="#7a211a" fill-opacity="0.501961" points="48,9 40,30 26,4" />
<polygon fill="#a9c5b5" fill-opacity="0.501961" points="237,88 143,5 99,35" />
<polygon fill="#ffffff" fill-opacity="0.501961" points="150,54 185,80 126,57" />
<polygon fill="#d2ffe3" fill-opacity="0.501961" points="48,3 65,-16 47,-16" />
<polygon fill="#aeb8d5" fill-opacity="0.501961" points="42,44 26,42 37,49" />
<polygon fill="#000005" fill-opacity="0.501961" points="45,40 56,25 25,42" />
<polygon fill="#140005" fill-opacity="0.501961" points="66,52 36,49 49,43" />
<polygon fill="#000001" fill-opacity="0.501961" points="21,1 64,-14 35,6" />
<polygon fill="#852b32" fill-opacity="0.501961" points="29,16 -9,1 4,66" />
<polygon fill="#f79f95" fill-opacity="0.501961" points="53,43 41,42 56,35" />
<polygon fill="#ded8da" fill-opacity="0.501961" points="90,41 80,54 89,30" />
<polygon fill="#ffd4bd" fill-opacity="0.501961" points="80,37 75,35 78,23" />
<polygon fill="#fc9583" fill-opacity="0.501961" points="22,105 -11,70 72,61" />
<polygon fill="#cccee7" fill-opacity="0.501961" points="59,61 71,59 54,52" />
<polygon fill="#f69a88" fill-opacity="0.501961" points="95,44 12,98 206,93" />
<polygon fill="#ffffff" fill-opacity="0.501961" points="93,25 92,43 95,34" />
<polygon fill="#ffffff" fill-opacity="0.501961" points="188,77 231,110 271,104" />
<polygon fill="#261d2d" fill-opacity="0.501961" points="91,40 91,35 86,42" />
<polygon fill="#ffffff" fill-opacity="0.501961" points="94,43 101,45 109,28" />
<polygon fill="#8f3431" fill-opacity="0.501961" points="50,34 70,29 61,20" />
<polygon fill="#7f1f29" fill-opacity="0.501961" points="-11,46 25,64 60,60" />
<polygon fill="#4a3336" fill-opacity="0.501961" points="64,36 76,37 67,41" />
<polygon fill="#9ccbb9" fill-opacity="0.501961" points="106,7 87,8 84,-16" />
<polygon fill="#000004" fill-opacity="0.501961" points="103,-16 49,4 62,20" />
<polygon fill="#4b4f5e" fill-opacity="0.501961" points="104,19 95,19 96,38" />
<polygon fill="#ffffff" fill-opacity="0.501961" points="100,35 99,26 96,27" />
<polygon fill="#afc2e4" fill-opacity="0.501961" points="48,27 44,32 38,30" />
<polygon fill="#ffffff" fill-opacity="0.501961" points="108,39 134,59 161,61" />
<polygon fill="#f7ffff" fill-opacity="0.501961" points="2,-7 26,6 22,13" />
<polygon fill="#a69baa" fill-opacity="0.501961" points="27,21 25,32 35,28" />
<polygon fill="#afcec5" fill-opacity="0.501961" points="164,-16 271,19 106,28" />
<polygon fill="#1d212f" fill-opacity="0.501961" points="77,38 82,46 89,23" />
<polygon fill="#ffffff" fill-opacity="0.501961" points="110,23 95,12 108,15" />
<polygon fill="#0d1721" fill-opacity="0.501961" points="48,27 37,29 36,25" />
<polygon fill="#61151e" fill-opacity="0.501961" points="51,50 28,65 22,47" />
<polygon fill="#000002" fill-opacity="0.501961" points="68,52 51,46 58,54" />
<polygon fill="#b1a4b4" fill-opacity="0.501961" points="37,47 29,47 23,38" />
<polygon fill="#131727" fill-opacity="0.501961" points="99,19 102,31 108,25" />
<polygon fill="#8b2a31" fill-opacity="0.501961" points="-16,25 4,67 18,54" />
<polygon fill="#ffffff" fill-opacity="0.501961" points="175,66 193,85 149,66" />
<polygon fill="#21262f" fill-opacity="0.501961" points="54,31 62,33 68,40" />
<polygon fill="#a2acc0" fill-opacity="0.501961" points="54,35 54,46 68,38" />
<polygon fill="#dea59e" fill-opacity="0.501961" points="55,17 48,8 51,24" />
<polygon fill="#a9c5b5" fill-opacity="0.501961" points="107,37 198,74 110,7" />
<polygon fill="#efbcab" fill-opacity="0.501961" points="54,14 49,8 49,25" />
<polygon fill="#874339" fill-opacity="0.501961" points="48,23 48,1 38,24" />
<polygon fill="#ff9987" fill-opacity="0.501961" points="-13,82 49,68 10,62" />
<polygon fill="#acc4b6" fill-opacity="0.501961" points="265,103 133,47 265,64" />
<polygon fill="#000a1a" fill-opacity="0.501961" points="44,27 60,17 54,26" />
<polygon fill="#505551" fill-opacity="0.501961" points="87,20 88,37 81,16" />
<polygon fill="#8d8fa5" fill-opacity="0.501961" points="38,48 47,40 31,44" />
<polygon fill="#a3949c" fill-opacity="0.501961" points="34,25 23,28 32,36" />
<polygon fill="#000000" fill-opacity="0.501961" points="97,31 97,36 96,34" />
<polygon fill="#fffbfe" fill-opacity="0.501961" points="99,33 97,44 127,54" />
<polygon fill="#000008" fill-opacity="0.501961" points="29,6 17,-5 69,-10" />
<polygon fill="#0e121f" fill-opacity="0.501961" points="81,46 84,33 69,53" />
<polygon fill="#872e27" fill-opacity="0.501961" points="28,21 33,6 39,27" />
<polygon fill="#ffffff" fill-opacity="0.501961" points="73,41 76,44 66,43" />
<polygon fill="#47323f" fill-opacity="0.501961" points="39,47 45,40 47,45" />
<polygon fill="#f78f7b" fill-opacity="0.501961" points="117,55 62,64 95,45" />
<polygon fill="#dddfea" fill-opacity="0.501961" points="62,55 81,52 65,60" />
<polygon fill="#defafd" fill-opacity="0.501961" points="75,43 75,39 73,43" />
<polygon fill="#060005" fill-opacity="0.501961" points="52,-9 66,22 85,16" />
<polygon fill="#272435" fill-opacity="0.501961" points="104,32 104,23 100,34" />
<polygon fill="#c9cccb" fill-opacity="0.501961" points="100,27 94,26 97,24" />
<polygon fill="#f79481" fill-opacity="0.501961" points="10,84 89,65 51,61" />
<polygon fill="#9c96a4" fill-opacity="0.501961" points="53,31 58,22 58,27" />
<polygon fill="#9b180d" fill-opacity="0.501961" points="60,29 71,21 60,21" />
<polygon fill="#eefcfa" fill-opacity="0.501961" points="0,-16 -7,-2 29,14" />
<polygon fill="#6b2028" fill-opacity="0.501961" points="5,29 27,62 25,32" />
<polygon fill="#afcdc3" fill-opacity="0.501961" points="155,-11 267,-16 264,98" />
<polygon fill="#afe5da" fill-opacity="0.501961" points="53,0 76,-16 2,-12" />
<polygon fill="#892e35" fill-opacity="0.501961" points="-9,81 -14,2 31,16" />
<polygon fill="#b66f5c" fill-opacity="0.501961" points="72,41 70,32 60,32" />
<polygon fill="#811f28" fill-opacity="0.501961" points="46,64 21,62 35,55" />
<polygon fill="#f2f5f0" fill-opacity="0.501961" points="27,8 24,14 10,-2" />
<polygon fill="#a3c7b9" fill-opacity="0.501961" points="87,-3 85,10 104,-3" />
<polygon fill="#edf8ff" fill-opacity="0.501961" points="58,35 61,39 62,38" />
<polygon fill="#172737" fill-opacity="0.501961" points="98,30 92,15 87,16" />
<polygon fill="#ff7f5b" fill-opacity="0.501961" points="52,42 55,34 44,43" />
<polygon fill="#1f0000" fill-opacity="0.501961" points="55,47 52,44 47,46" />
<polygon fill="#3c3d46" fill-opacity="0.501961" points="82,35 79,40 66,40" />
<polygon fill="#181924" fill-opacity="0.501961" points="68,54 77,41 78,47" />
<polygon fill="#7f2f37" fill-opacity="0.501961" points="8,24 35,29 -11,4" />
<polygon fill="#da8f70" fill-opacity="0.501961" points="79,22 74,35 75,21" />
<polygon fill="#dfe0e8" fill-opacity="0.501961" points="95,18 102,15 95,15" />
<polygon fill="#000008" fill-opacity="0.501961" points="79,31 82,21 82,31" />
<polygon fill="#f69c8b" fill-opacity="0.501961" points="253,109 106,106 134,65" />
<polygon fill="#efeef2" fill-opacity="0.501961" points="91,47 94,37 87,46" />
<polygon fill="#030819" fill-opacity="0.501961" points="64,54 75,45 65,45" />
<polygon fill="#000005" fill-opacity="0.501961" points="52,29 45,38 25,39" />
<polygon fill="#202731" fill-opacity="0.501961" points="82,9 91,9 92,30" />
<polygon fill="#ff8e78" fill-opacity="0.501961" points="9,27 8,24 5,25" />
<polygon fill="#ffffff" fill-opacity="0.501961" points="87,42 90,31 87,35" />
<polygon fill="#4a0c16" fill-opacity="0.501961" points="52,44 33,51 54,59" />
<polygon fill="#fffdfe" fill-opacity="0.501961" points="184,81 215,84 225,97" />
<polygon fill="#bcafc3" fill-opacity="0.501961" points="55,59 53,50 58,57" />
<polygon fill="#c7c3d3" fill-opacity="0.501961" points="28,36 34,34 35,29" />
<polygon fill="#020c14" fill-opacity="0.501961" points="59,32 57,29 59,35" />
<polygon fill="#a0c7b8" fill-opacity="0.501961" points="105,-16 93,11 125,14" />
<polygon fill="#85845f" fill-opacity="0.501961" points="87,23 82,19 82,16" />
<polygon fill="#5c5b64" fill-opacity="0.501961" points="62,41 61,38 55,37" />
<polygon fill="#cbd5e2" fill-opacity="0.501961" points="26,27 28,22 32,25" />
<polygon fill="#663c3d" fill-opacity="0.501961" points="39,27 44,22 24,19" />
<polygon fill="#eaf3f5" fill-opacity="0.501961" points="58,48 73,42 62,41" />
<polygon fill="#000109" fill-opacity="0.501961" points="26,35 40,39 28,40" />
<polygon fill="#bcaebf" fill-opacity="0.501961" points="27,42 33,48 39,43" />
<polygon fill="#f4bbb2" fill-opacity="0.501961" points="28,31 23,31 27,27" />
<polygon fill="#370e0e" fill-opacity="0.501961" points="46,9 39,8 39,19" />
<polygon fill="#f3ebf6" fill-opacity="0.501961" points="62,36 58,36 65,41" />
<polygon fill="#aeccc1" fill-opacity="0.501961" points="271,58 127,-16 108,27" />
<polygon fill="#7baf9a" fill-opacity="0.501961" points="0,-9 20,1 21,-13" />
<polygon fill="#1c2732" fill-opacity="0.501961" points="92,21 107,22 85,14" />
<polygon fill="#09070c" fill-opacity="0.501961" points="54,19 56,-1 84,13" />
<polygon fill="#5e6470" fill-opacity="0.501961" points="30,27 33,34 28,31" />
<polygon fill="#c16447" fill-opacity="0.501961" points="79,19 64,31 71,39" />
<polygon fill="#c7c0cf" fill-opacity="0.501961" points="39,32 33,26 31,36" />
<polygon fill="#11101a" fill-opacity="0.501961" points="62,55 82,44 58,48" />
<polygon fill="#bb534b" fill-opacity="0.501961" points="37,19 16,10 25,18" />
<polygon fill="#201f27" fill-opacity="0.501961" points="87,24 87,33 82,38" />
<polygon fill="#928183" fill-opacity="0.501961" points="48,22 52,21 49,25" />
<polygon fill="#85494e" fill-opacity="0.501961" points="60,28 49,38 53,28" />
<polygon fill="#dfeaf0" fill-opacity="0.501961" points="82,47 89,37 85,48" />
<polygon fill="#3e4249" fill-opacity="0.501961" points="30,27 30,30 33,29" />
<polygon fill="#6c1c24" fill-opacity="0.501961" points="37,65 54,58 26,46" />
<polygon fill="#8b2f2e" fill-opacity="0.501961" points="25,18 20,29 38,12" />
<polygon fill="#fbf9f8" fill-opacity="0.501961" points="130,48 155,68 104,47" />
<polygon fill="#f6f6f4" fill-opacity="0.501961" points="100,32 104,46 98,42" />
<polygon fill="#fdfbfb" fill-opacity="0.501961" points="198,77 168,73 153,58" />
<polygon fill="#b4cfc6" fill-opacity="0.501961" points="102,8 96,9 93,16" />
<polygon fill="#001015" fill-opacity="0.501961" points="26,34 25,36 30,38" />
<polygon fill="#f89b8a" fill-opacity="0.501961" points="45,95 -16,88 15,60" />
<polygon fill="#313a48" fill-opacity="0.501961" points="100,23 82,27 86,19" />
<polygon fill="#201e26" fill-opacity="0.501961" points="71,52 84,43 76,44" />
<polygon fill="#000006" fill-opacity="0.501961" points="48,26 48,36 52,29" />
<polygon fill="#a5c9ba" fill-opacity="0.501961" points="91,13 139,2 105,-7" />
<polygon fill="#000008" fill-opacity="0.501961" points="23,1 41,5 52,-10" />
<polygon fill="#f48a75" fill-opacity="0.501961" points="80,53 94,45 87,57" />
<polygon fill="#000307" fill-opacity="0.501961" points="50,25 57,25 43,37" />
<polygon fill="#d5bcc5" fill-opacity="0.501961" points="60,60 53,55 70,57" />
<polygon fill="#b5a5b6" fill-opacity="0.501961" points="35,48 41,46 32,43" />
<polygon fill="#812731" fill-opacity="0.501961" points="18,53 -6,3 5,64" />
<polygon fill="#3d4250" fill-opacity="0.501961" points="80,35 98,18 89,18" />
<polygon fill="#ffffff" fill-opacity="0.501961" points="110,26 106,19 109,21" />
<polygon fill="#f9c6b5" fill-opacity="0.501961" points="74,36 77,28 79,33" />
<polygon fill="#100f18" fill-opacity="0.501961" points="76,6 84,-5 81,24" />
<polygon fill="#e8eaf0" fill-opacity="0.501961" points="72,58 83,50 76,50" />
<polygon fill="#fdfbfb" fill-opacity="0.501961" points="216,95 193,75 244,96" />
<polygon fill="#f89581" fill-opacity="0.501961" points="51,110 31,72 52,61" />
<polygon fill="#8a3a32" fill-opacity="0.501961" points="30,18 49,19 38,24" />
<polygon fill="#f69c8c" fill-opacity="0.501961" points="159,73 39,110 104,49" />
<polygon fill="#3c0911" fill-opacity="0.501961" points="53,43 47,44 52,58" />
<polygon fill="#181d24" fill-opacity="0.501961" points="89,23 100,23 84,11" />
<polygon fill="#a5321c" fill-opacity="0.501961" points="67,28 61,24 75,22" />
<polygon fill="#434953" fill-opacity="0.501961" points="48,25 55,15 56,19" />
<polygon fill="#4c4350" fill-opacity="0.501961" points="91,26 90,39 93,31" />
<polygon fill="#aba1b0" fill-opacity="0.501961" points="40,43 28,45 34,49" />
<polygon fill="#fdfffd" fill-opacity="0.501961" points="96,25 100,29 99,31" />
<polygon fill="#5e1a21" fill-opacity="0.501961" points="29,49 23,38 21,55" />
<polygon fill="#a3c5b7" fill-opacity="0.501961" points="95,-16 106,13 85,5" />
<polygon fill="#090106" fill-opacity="0.501961" points="78,-16 51,10 82,10" />
<polygon fill="#000108" fill-opacity="0.501961" points="50,34 28,37 39,42" />
<polygon fill="#a7c4b4" fill-opacity="0.501961" points="109,37 162,58 112,19" />
</g>
</svg>