<?xml version="1.0" encoding="UTF-8" standalone="no"?>
<svg
   xmlns:dc="http://purl.org/dc/elements/1.1/"
   xmlns:cc="http://creativecommons.org/ns#"
   xmlns:rdf="http://www.w3.org/1999/02/22-rdf-syntax-ns#"
   xmlns:svg="http://www.w3.org/2000/svg"
   xmlns="http://www.w3.org/2000/svg"
   xmlns:sodipodi="http://sodipodi.sourceforge.net/DTD/sodipodi-0.dtd"
   xmlns:inkscape="http://www.inkscape.org/namespaces/inkscape"
   id="svg2"
   version="1.1"
   inkscape:version="0.91 r13725"
   width="787.83759"
   height="285.31351"
   xml:space="preserve"
   sodipodi:docname="logo.svg"><metadata
     id="metadata21"><rdf:RDF><cc:Work
         rdf:about=""><dc:format>image/svg+xml</dc:format><dc:type
           rdf:resource="http://purl.org/dc/dcmitype/StillImage" /><dc:title></dc:title></cc:Work></rdf:RDF></metadata><sodipodi:namedview
     pagecolor="#ffffff"
     bordercolor="#666666"
     borderopacity="1"
     objecttolerance="10"
     gridtolerance="10"
     guidetolerance="10"
     inkscape:pageopacity="0"
     inkscape:pageshadow="2"
     inkscape:window-width="1164"
     inkscape:window-height="813"
     id="namedview19"
     showgrid="false"
     fit-margin-top="0"
     fit-margin-left="0"
     fit-margin-right="0"
     fit-margin-bottom="0"
     inkscape:zoom="0.72712891"
     inkscape:cx="395.00765"
     inkscape:cy="146.07089"
     inkscape:window-x="0"
     inkscape:window-y="0"
     inkscape:window-maximized="0"
     inkscape:current-layer="svg2" /><defs
     id="SvgjsDefs1054" /><g
     id="main_text"
     rel="mainfill"
     name="main_text"
     transform="matrix(4.601831,0,0,4.601831,346.33791,-90.656061)"
     style="fill:#ffffff"><path
       d="m 1.56,69.654 3.12,0 c 0,0.468 0.156,2.574 1.872,4.29 0.156,0.156 1.872,1.794 4.446,1.794 0.39,0 0.78,0 1.17,-0.078 2.34,-0.468 4.29,-2.34 4.836,-4.68 0.702,-4.056 0.936,-7.566 1.014,-10.296 0.078,-1.482 0.078,-2.808 0.078,-3.978 0,-2.73 -0.156,-4.836 -0.546,-7.566 -0.468,-3.666 -1.014,-5.616 -2.574,-6.864 -1.326,-1.014 -2.34,-1.482 -4.056,-1.482 -5.148,0 -9.36,-4.056 -9.36,-9.048 0,-5.07 4.212,-9.126 9.36,-9.126 5.226,0 9.36,4.056 9.36,9.126 l -3.12,0 c 0,-3.354 -2.73,-6.084 -6.24,-6.084 -3.432,0 -6.24,2.73 -6.24,6.084 0,3.276 2.808,6.006 6.24,6.084 0.936,0 3.042,0.078 5.226,1.482 1.248,0.858 2.106,1.794 2.652,2.574 0.936,1.404 1.248,2.73 1.404,3.432 0.624,3.588 0.858,7.722 0.858,12.948 0,4.836 -0.312,9.282 -0.858,12.714 -0.702,4.446 -4.524,7.8 -9.282,7.8 -5.148,0 -9.36,-4.134 -9.36,-9.126 z M 42.9,23.4 l 0,2.34 -7.8,0 0,52.26 -3.12,0 0,-52.26 -7.8,0 0,-2.34 18.72,0 z m 13.26,-0.78 c 5.148,0 9.36,4.134 9.36,9.204 l 0,46.176 -3.12,0 0,-15.99 -12.48,0 0,15.99 -3.12,0 0,-46.176 c 0,-5.07 4.134,-9.204 9.36,-9.204 z m 6.24,37.128 0,-27.924 c 0,-3.354 -2.808,-6.162 -6.24,-6.162 -3.432,0 -6.24,2.808 -6.24,6.162 l 0,27.924 12.48,0 z M 88.14,23.4 l 0,2.34 -7.8,0 0,52.26 -3.12,0 0,-52.26 -7.8,0 0,-2.34 18.72,0 z m 7.8,0 0,54.6 -3.12,0 0,-54.6 3.12,0 z"
       id="path8"
       inkscape:connector-curvature="0" /></g><g
     id="SvgjsG1057"
     rel="mainfill"
     name="symbol"
     transform="matrix(3.1701502,0,0,3.1701502,-16.262871,-15.850751)"
     style="fill:#ffffff"><g
       id="g11"><path
         fill=""
         d="M 94.87,30.495 C 94.87,16.414 83.456,5 69.375,5 56.72,5 46.245,14.232 44.25,26.324 L 5.13,37.646 6.705,43.088 43.972,32.302 c 0.374,5.314 2.36,10.178 5.495,14.095 l -35.918,35.914 4.006,4.006 35.917,-35.916 c 4.05,3.237 9.104,5.248 14.623,5.522 L 57.973,93.528 63.444,95 74.064,55.538 C 85.902,53.333 94.87,42.969 94.87,30.495 Z"
         id="path13"
         inkscape:connector-curvature="0" /><path
         fill=""
         d="m 41.195,39.954 -16.814,9.262 2.733,4.963 16.396,-9.032 C 42.578,43.506 41.803,41.77 41.195,39.954 Z"
         id="path15"
         inkscape:connector-curvature="0" /><path
         fill=""
         d="m 55.38,56.736 -8.517,16.395 5.029,2.611 8.736,-16.817 C 58.797,58.362 57.043,57.623 55.38,56.736 Z"
         id="path17"
         inkscape:connector-curvature="0" /></g></g></svg>